<svg width="50" height="66" viewBox="0 0 50 66" fill="none" xmlns="http://www.w3.org/2000/svg">
<mask id="mask0_18_7" style="mask-type:luminance" maskUnits="userSpaceOnUse" x="0" y="0" width="50" height="66">
<path d="M0 0H50V65.5806H0V0Z" fill="white"/>
</mask>
<g mask="url(#mask0_18_7)">
<path d="M23.8231 2.94084e-05C23.0511 0.0501896 22.2995 0.269915 21.6265 0.644346C19.9579 1.73012 18.7454 3.37957 18.8708 5.5079C18.7454 7.67945 20.3676 9.5858 22.2455 10.4546C22.1625 10.9759 22.3366 11.5794 22.0858 12.0134C18.4969 12.2736 14.9169 12.9687 11.662 14.4452C11.7458 15.9225 11.6164 17.6659 11.7418 19.1425C15.0383 20.5758 18.6152 21.1777 22.2455 21.6989C22.1625 21.9592 22.3366 22.3582 22.0858 22.4888L18.1119 22.5303V24.006C17.528 25.135 16.1582 24.7867 15.6158 25.9598C15.4489 27.1761 13.7459 27.5635 14.0383 28.9527C13.6213 29.3443 13.5319 29.9088 13.2395 30.3868C12.5725 30.4733 11.6899 30.3378 11.0229 30.5115L11.1428 42.3379L12.1212 43.4186L14.9968 43.4602C15.4561 43.851 15.8171 44.3248 15.7756 45.019C15.984 45.4539 16.3579 45.5919 16.7341 45.8089C16.9002 46.5903 17.5456 47.1033 18.1719 47.4508L18.2517 50.4438L19.2502 51.6701C20.2095 51.8006 20.9483 51.4921 21.8661 51.7532C21.6576 52.7084 20.7838 53.5864 19.9491 53.9771C17.6127 55.1061 15.2013 53.6978 13.2395 52.4391C12.6556 51.7873 11.3968 51.2785 11.5222 50.2359C11.6883 49.802 12.1212 49.5866 12.5805 49.7163C13.039 49.6731 13.3633 50.6342 13.7387 50.0697C13.7803 45.7706 9.35992 44.5078 6.68967 42.3794C6.06344 41.8149 5.81822 40.9046 5.19199 40.3841C3.898 41.5564 3.30532 43.1909 2.59602 44.6241C1.34436 48.1858 1.34916 52.7126 3.89401 55.536C4.64564 56.1869 5.39008 56.9634 6.35019 57.1364C6.89255 56.7456 6.1529 56.1836 6.11057 55.6191C5.98516 54.9241 6.01152 54.3961 6.47001 53.8316C6.84623 53.6146 7.35264 53.6146 7.72806 53.8316C9.64748 56.4812 12.2722 58.0118 14.8171 59.8799C17.6135 61.6166 20.9619 62.0997 23.4237 64.6187C23.8407 64.9222 23.8399 65.6546 24.3822 65.7411C26.7194 62.7881 30.1045 61.9625 33.1087 60.3995C33.9857 61.0072 32.484 61.5701 32.6094 62.3948C32.7341 62.8729 32.9689 63.2985 33.4282 63.5587C33.8451 63.819 34.5249 63.8364 35.0257 63.6627C35.985 63.3592 35.5129 62.1263 36.2638 61.605C36.5561 61.2143 36.5306 60.6057 36.3636 60.1709C36.6975 59.7801 36.6488 59.13 36.5234 58.6952L38.8997 56.8454C39.859 56.1503 40.4908 55.0579 41.5755 54.5799C42.0772 54.5366 42.4422 54.875 42.7337 55.2658C42.943 56.1778 42.2409 56.9119 42.0748 57.7807C42.1163 57.9977 42.3272 57.9661 42.4941 58.0093C43.7042 57.4448 44.7746 56.4779 45.6093 55.3489C48.6549 51.7008 46.952 46.6244 45.9088 42.6288C45.6995 42.1508 45.9471 41.3743 45.5294 41.07C45.0294 41.9388 44.0661 42.5 43.2729 43.0653C40.3518 44.4113 37.0681 46.3326 35.5249 49.6332C35.5249 49.9375 35.235 50.2434 35.485 50.5477C35.8189 50.7215 36.0537 50.3681 36.3037 50.1944C36.7207 50.1079 37.1496 50.157 37.4419 50.5477C37.6089 50.8079 37.6528 51.1812 37.402 51.4414C36.4012 52.3534 35.4371 53.2763 34.2269 53.6238C33.7261 53.4068 33.7309 52.7932 33.6478 52.2728C32.8131 51.4905 32.9849 50.0206 31.6909 49.7163C31.7332 47.9363 31.5639 45.7166 31.7308 43.5018C33.9841 43.4586 36.358 43.5034 38.8198 43.4602V31.5923L37.9412 30.2621L31.8906 30.3037L31.591 30.1582L31.5511 24.006L30.5127 22.4888C30.0119 22.4015 29.396 22.517 28.8952 22.3433L29.8937 21.2625C32.5224 20.8717 34.985 20.1451 37.3221 19.0593L37.3621 14.757L37.2822 14.4036C35.7805 13.6221 34.0951 13.2206 32.5096 12.6993C32.4265 12.4382 32.6925 12.3135 32.6094 12.0966C32.6925 11.0972 31.2587 10.7464 31.5511 9.74792C31.5511 8.92236 31.3442 8.28885 30.5926 7.8981C29.7163 7.85487 30.3561 6.79237 29.8138 6.40163C30.3146 5.96765 31.0471 5.80719 31.631 6.11064C32.0064 6.02418 32.2212 5.66669 32.4297 5.36241C32.6382 4.97166 32.6765 4.42295 32.5096 4.0322C32.3011 3.55416 31.8466 3.25071 31.4712 3.07612C31.0543 2.90319 30.547 2.97968 30.2132 3.28397C29.5869 3.63148 29.0566 3.06781 28.5557 2.76435C28.3057 2.11256 27.876 1.642 27.4175 1.16396C26.4265 0.295168 25.1097 -0.083571 23.8231 2.94084e-05ZM23.9429 3.13847C24.6764 3.07709 25.4486 3.35359 25.84 4.0322V4.36475C25.1307 4.06047 24.0515 4.01558 23.3838 4.40632C22.716 4.8403 22.4141 5.62429 22.2056 6.31849C21.9556 6.18879 21.8677 5.81052 21.8262 5.54947C21.9093 4.8112 22.1609 4.07377 22.7448 3.59573C23.0733 3.33541 23.5028 3.17531 23.9429 3.13847ZM27.8768 9.02046L29.015 10.1012C28.8065 10.8403 29.0038 11.404 29.2547 12.055C28.6284 12.055 27.8448 12.0625 27.1779 11.8887C27.2609 11.0208 26.5884 9.58081 27.757 9.1036L27.8768 9.02046ZM17.9921 27.8303L18.1119 27.9135C18.0704 28.7823 18.1559 29.4806 18.072 30.2621C17.6135 30.3926 17.1151 30.3469 16.6143 30.3037L17.0736 29.0358C17.4913 28.7316 17.7837 28.2652 17.9921 27.8303ZM27.7969 51.7532H29.7539C29.6708 52.4482 29.928 53.0925 30.5127 53.3536C30.8042 53.4833 30.9752 53.7127 30.8921 54.0603V54.185C29.6405 54.0112 28.0893 53.3943 27.7969 51.961V51.7532Z" fill="#231F20"/>
</g>
<path d="M27.8424 3.11102C27.3001 3.15425 27.0501 3.93576 26.5492 3.63231C25.8399 2.54653 24.5044 2.15577 23.2527 2.41599C22.0842 2.84997 21.3333 3.89253 21.1248 5.15207C20.9579 6.15055 21.5003 7.06341 22.168 7.80167C22.1257 8.40941 22.3765 9.10443 22.1257 9.53841C21.041 9.0612 20.0817 8.0619 19.7062 6.88966C19.33 5.32585 19.6224 3.58824 20.6656 2.45923C21.5418 1.33022 22.7935 0.722509 24.2121 0.678447C25.7145 0.722509 27.3001 1.59044 27.8424 3.11102Z" fill="#FEFE00"/>
<path d="M29.9703 4.80457C30.0957 5.02156 30.0957 5.36907 29.9703 5.54283C29.6788 5.89035 29.2195 5.80387 28.8856 5.63011C28.4271 5.10884 28.3848 4.28329 27.6755 4.02307C27.7593 3.5018 28.2602 3.84931 28.5102 3.58826C29.1364 3.63232 29.6788 4.2833 29.9703 4.80457Z" fill="#A6A600"/>
<path d="M31.7651 4.24004C31.9321 4.54432 31.7651 4.80452 31.5982 5.06558C31.3897 5.19527 31.1812 5.45633 30.9304 5.23851C30.7219 4.89183 30.2626 4.50027 30.4711 4.02306C30.805 3.58825 31.5566 3.71876 31.7651 4.24004Z" fill="#A6A600"/>
<path d="M27.884 5.06555C27.9263 5.19525 28.0094 5.4131 27.9263 5.54279C27.6755 5.80385 27.217 5.71654 26.9247 5.63007C26.5908 5.49955 26.4238 5.02152 26.6323 4.71806C27.0501 4.24002 27.634 4.67398 27.884 5.06555Z" fill="#A6A600"/>
<path d="M25.8399 5.32578C26.7992 7.14982 26.2568 9.66888 26.3407 11.7972H26.0068C25.9653 9.92993 25.8814 8.27884 25.9229 6.58532C25.8399 6.41157 25.6729 6.41156 25.5891 6.54209L25.2552 7.06337L25.2975 11.6235L25.0467 11.8404H22.8773C22.7519 10.1029 22.7519 7.88807 22.8773 5.97757C23.0442 5.32577 23.6696 4.84777 24.2959 4.71808C24.8798 4.76131 25.4221 4.8918 25.8399 5.32578Z" fill="#FEFE00"/>
<path d="M29.4279 7.01931C29.5533 7.45412 29.0948 7.36679 28.8855 7.49731C28.3847 7.49731 27.7178 7.49734 27.3415 7.06336C27.1754 6.84554 27.1331 6.58529 27.1331 6.32423C27.8424 6.02078 28.6771 6.23779 29.2617 6.62854L29.4279 7.01931Z" fill="#A6A600"/>
<path d="M27.7593 8.01866C27.7593 8.27888 27.5085 8.45265 27.3001 8.53995H27.1755C27.0916 8.2789 27.0916 7.93139 27.1755 7.67117C27.4255 7.67117 27.6339 7.80167 27.7593 8.01866Z" fill="#FEFE00"/>
<path d="M30.8474 8.93066C30.9304 9.19088 31.0135 9.4952 30.8889 9.79948C30.1381 9.84272 29.2195 9.71219 28.6356 9.06122C28.5517 8.75694 28.3433 8.45262 28.5517 8.14916C29.3449 7.80165 30.3465 8.14917 30.8474 8.93066Z" fill="#A6A600"/>
<path d="M31.6812 11.3624C31.8067 11.7099 32.1821 12.1015 31.8905 12.4922C31.3897 12.666 30.8473 12.4922 30.4711 12.1879C30.0126 11.8404 29.5118 11.4497 29.4703 10.7979C29.5533 10.5809 29.6372 10.4071 29.8457 10.3207C30.555 10.4503 31.2643 10.6674 31.6812 11.3624Z" fill="#A6A600"/>
<path d="M36.5217 14.8809V14.9241C33.5591 14.1426 30.555 13.0136 27.4254 12.9263C22.3765 12.405 17.119 13.2738 12.5286 15.0106L12.5709 14.8368C19.8732 11.9278 29.2618 11.6668 36.5217 14.8809Z" fill="#FEFE00"/>
<path d="M36.5217 15.6191C36.6887 16.4879 36.6056 17.6601 36.5641 18.4857C29.3864 21.8727 19.7062 21.6125 12.487 18.4424L12.4455 15.7928C13.2794 15.0105 14.5734 14.924 15.6166 14.5333C22.3349 12.405 30.1796 13.0568 36.5217 15.6191Z" fill="#FEFE00"/>
<path d="M21.4164 15.8793V16.1403C21.1249 16.2268 20.7071 16.2268 20.7494 15.7928C20.624 15.7496 20.4571 15.7055 20.3732 15.8361C20.2486 16.7049 21.4587 16.4879 21.4587 17.2694C21.4587 17.6601 21.3333 18.1381 20.9164 18.1814C20.4571 18.3119 19.9563 18.2246 19.7478 17.7474V17.3126L20.2902 17.2694C20.3317 17.4431 20.2902 17.7474 20.5402 17.7474C20.7071 17.8339 20.8325 17.6601 20.8741 17.5296C20.6656 16.7913 19.08 16.5311 19.9978 15.4885C20.4571 15.2715 21.2918 15.1851 21.4164 15.8793Z" fill="#231F20"/>
<path d="M23.1274 17.6169C23.2528 17.7474 23.4612 17.8339 23.6282 17.6601C23.7536 16.9651 23.6282 16.0098 23.7536 15.358C23.879 15.2716 24.0036 15.4021 24.1705 15.3148C24.2959 16.1836 24.2544 17.0956 24.2121 17.8339C24.0036 18.1814 23.5028 18.3119 23.1689 18.1814C22.8358 18.1814 22.6681 17.9211 22.5435 17.6601V15.4021C22.6681 15.4021 22.8773 15.2716 23.0443 15.358L23.1274 17.6169Z" fill="#231F20"/>
<path d="M26.9662 15.7056C27.0085 16.0963 27.0916 16.5743 26.7162 16.7913C27.217 17.1388 26.9662 17.5736 27.0501 18.1382C26.8831 18.2246 26.7162 18.1814 26.5492 18.1814C26.2569 17.8339 26.7577 16.8354 25.9653 17.0092L25.8399 18.1814H25.3391L25.2552 15.4021C25.8399 15.4453 26.5908 15.0978 26.9662 15.7056Z" fill="#231F20"/>
<path d="M29.5118 15.6191V15.7055C29.2194 15.8361 28.5102 15.5758 28.7186 16.2268C28.6356 16.5311 29.011 16.5311 29.1364 16.4878C29.2194 16.4878 29.3864 16.4878 29.4279 16.4878C29.4279 16.6175 29.6372 16.8786 29.3864 16.9218H28.761V17.6601L29.5949 17.7474V18.0949C29.1364 18.1381 28.594 18.2678 28.1763 18.0949V15.358C28.594 15.4885 29.3449 15.0978 29.5118 15.6191Z" fill="#231F20"/>
<path d="M14.8657 15.4453C14.9903 16.4438 14.9073 17.5737 14.9488 18.7027L14.7403 18.6594C14.6573 17.5737 14.6149 16.7048 14.6573 15.5318C14.6988 15.4885 14.7819 15.4453 14.8657 15.4453Z" fill="#231F20"/>
<path d="M34.5608 16.0098L34.5192 18.5289L34.3108 18.6162C34.1854 17.6601 34.2684 16.5311 34.2684 15.4885C34.5608 15.4021 34.5608 15.7928 34.5608 16.0098Z" fill="#231F20"/>
<path d="M14.3225 18.4425H14.0725C13.9056 17.5737 14.1141 16.5311 14.031 15.7056C14.1564 15.7056 14.1564 15.6191 14.2395 15.7056L14.3225 18.4425Z" fill="#231F20"/>
<path d="M35.2286 15.7056C35.1447 16.6176 35.437 17.6601 35.1032 18.4425C35.1032 18.3984 35.0201 18.4425 34.9778 18.4425L34.9362 15.7056H35.2286Z" fill="#231F20"/>
<path d="M13.6556 18.2679H13.4471C13.3217 17.5296 13.3217 16.6176 13.4471 15.8361H13.6141L13.6556 18.2679Z" fill="#231F20"/>
<path d="M26.3407 16.1835C26.3822 16.3573 26.2568 16.5743 26.0899 16.5311C25.756 16.6175 26.0068 16.2708 25.8814 16.0963L25.9229 15.836C26.1738 15.7928 26.4238 15.9233 26.3407 16.1835Z" fill="#FEFE00"/>
<path d="M35.8963 18.1814C35.8539 18.2678 35.7709 18.2679 35.687 18.2679C35.5209 17.4864 35.6455 16.5743 35.687 15.8361L35.8963 15.9234V18.1814Z" fill="#231F20"/>
<path d="M28.844 21.482C28.8025 21.8727 28.2602 22.0905 27.8839 22.3075C27.7178 22.3075 27.5509 22.394 27.3839 22.3508C27.217 22.177 27.3416 21.8727 27.3 21.6557C27.8424 21.6125 28.2602 21.482 28.844 21.482Z" fill="#A6A600"/>
<path d="M25.3807 22.5677L25.6315 50.1902C25.7561 51.754 26.0484 53.317 27.217 54.3163L27.3839 54.229C26.5908 52.8398 26.2984 51.1454 26.2984 49.4951L26.09 21.743C26.1738 21.6124 26.3408 21.6998 26.4654 21.6557L26.6323 31.0369L26.7993 51.276C27.0085 52.5787 27.884 53.8383 29.0526 54.4028C31.4313 55.4021 34.4354 55.141 36.3972 53.4475C37.7734 52.2753 39.109 50.8852 39.8598 49.2349C39.8183 49.1044 39.7352 48.9739 39.6098 48.9307C39.0674 49.1917 39.0674 50.0164 38.4412 50.3207C37.8988 49.8427 38.9005 49.3654 38.7751 48.8001C38.3997 49.0179 38.2327 49.6257 37.7319 49.4951C37.4819 49.2781 37.8988 48.9739 37.6488 48.7137C37.2726 48.8442 37.3149 49.4951 36.8556 49.3214C37.148 48.4526 37.9827 47.6711 38.6081 47.0634C40.5275 45.0656 43.1155 44.5875 45.1596 42.7635C45.7019 44.2832 45.9112 46.281 46.2866 48.0618C46.7874 51.0157 45.9527 54.012 43.8248 55.9666C43.6994 56.0098 43.6156 55.8801 43.6156 55.7928C43.9079 54.8808 44.9095 54.1858 44.7841 53.2305C44.2833 53.6645 44.1587 54.5333 43.5325 54.7943C43.2817 54.7503 43.3655 54.4027 43.4486 54.2731C43.6579 53.7518 44.0333 53.2305 43.9494 52.6228C43.574 53.0568 43.4909 53.8383 42.8647 54.1425C42.7393 54.0993 42.5724 54.0553 42.5308 53.9256C42.7816 53.2305 43.4071 52.449 43.1155 51.754H43.0317C42.7816 52.4923 42.5724 53.4043 41.8631 53.7951L41.6546 53.7077C41.9054 52.3185 43.2401 51.0157 42.5724 49.4951L42.4893 49.5384C41.7385 53.8382 37.8988 56.7921 34.4354 58.6594C30.9304 59.9189 27.5509 61.3522 24.546 63.784H24.379C20.1232 59.8757 14.3226 59.702 10.2753 55.5326C8.43975 54.0552 7.3127 51.8405 6.47799 49.7122C6.31185 49.6689 6.18644 49.5824 6.14491 49.7562C6.26952 50.9284 7.02035 51.7972 7.22962 52.883C6.93727 53.0135 6.68726 52.5787 6.56186 52.4049C6.31185 51.8837 6.18644 51.2759 5.81102 50.7979L5.68562 50.9717C5.81102 51.6667 6.31185 52.3185 6.10257 53.0136C5.64408 52.9263 5.68562 52.2753 5.35174 52.1447C5.22633 52.5355 5.47714 52.9695 5.56021 53.4043L5.01786 53.1873C4.89245 53.4908 5.26866 53.8815 5.14326 54.229C4.85091 54.1858 4.80938 53.6213 4.4755 53.7951C4.51703 54.4469 5.22633 54.8376 5.35174 55.5326H5.14326C2.84762 53.6645 2.26373 50.6682 2.59761 47.7584C2.93149 45.4995 3.84927 43.545 5.10173 41.6777C7.10422 44.8486 11.1515 45.1088 12.7371 48.6264C12.7371 48.8442 12.5286 49.018 12.3617 48.8442L12.2786 48.7137C11.6939 49.3655 11.4023 48.0186 10.9015 48.1492C10.8177 48.4967 11.3608 48.7137 11.3185 49.1476C10.7346 49.1917 10.4422 48.4094 9.98375 48.2797C9.89988 48.8874 10.8177 49.1044 10.8177 49.7122H10.4846C9.60753 48.8442 8.8567 47.8881 8.1474 46.9329C8.02199 46.8464 7.98046 47.0201 7.98046 47.0634C9.64987 50.6682 13.2379 53.9688 17.0352 54.8808C18.83 55.2716 20.8741 54.7944 22.0426 53.1873C22.6265 52.3185 22.6681 51.1895 22.7935 50.1902L22.9604 21.6997L23.0443 21.6557L25.2976 21.6997L25.3807 22.5677Z" fill="#FEFE00"/>
<path d="M22.1257 23.089L22.2096 24.1747L22.0427 50.1902C21.1249 50.2775 19.9148 50.2775 19.0385 50.1902C18.8716 47.5846 19.0385 44.6748 18.9131 42.2854L18.83 42.1549L11.9863 42.1117C11.8609 38.6374 11.9447 34.251 11.9032 31.1242C14.198 30.9505 16.409 31.1242 18.7877 30.9937C18.83 28.6052 18.83 25.608 18.7877 23.2195L18.9131 23.089C20.0394 23.089 21.041 23.089 22.1257 23.089Z" fill="#FC0000"/>
<path d="M30.0956 23.4797L30.1379 30.9065L37.5233 30.9505C37.6072 34.8588 37.6902 38.4636 37.6072 42.2422H30.221C30.0956 44.5443 30.1795 47.4109 30.1379 50.0164L30.0541 50.1902C29.3032 50.1902 28.3847 50.1902 27.6338 50.1902L27.5084 38.0729L27.3415 23.1322L27.4254 23.0458H29.9702L30.0956 23.4797Z" fill="#FC0000"/>
<path d="M18.0368 27.1719C17.7445 27.1287 17.8283 26.8244 17.7029 26.6074C17.7868 26.1293 17.7029 25.5216 17.953 25.0868L18.0784 25.13L18.0368 27.1719Z" fill="#A6A600"/>
<mask id="mask1_18_7" style="mask-type:luminance" maskUnits="userSpaceOnUse" x="0" y="0" width="50" height="66">
<path d="M0 0H50V65.5806H0V0Z" fill="white"/>
</mask>
<g mask="url(#mask1_18_7)">
<path d="M17.2437 26.5201C17.3275 27.0846 17.4106 27.9101 16.9937 28.3009C16.6182 28.3882 16.4513 27.8669 16.2844 27.5626C16.1174 27.0414 16.0759 26.2599 16.4928 25.8691C16.9521 25.2606 17.3275 25.9988 17.2437 26.5201Z" fill="#A6A600"/>
<path d="M5.63124 25.7519C3.86891 25.7117 2.03482 26.0122 0.339454 25.8766C-0.286775 26.1368 0.141361 26.9557 0.0998254 27.477C0.349837 27.738 0.753211 27.7305 0.878617 28.1213L1.0184 34.5644C0.935329 34.9111 0.588667 35.0333 0.379392 35.2503C-0.0375613 35.5546 0.0566924 36.2089 0.139763 36.6429C0.306704 37.0336 0.641385 37.4269 1.05834 37.5574C3.47858 37.6439 6.14884 37.7702 8.52675 37.1625C9.52839 36.6844 10.2816 35.7184 10.324 34.5021C10.6155 33.3298 9.82074 32.2491 8.98604 31.4676C9.31992 31.12 9.6562 30.8208 9.86467 30.3868C10.4486 29.3442 10.1898 28.0348 9.60507 27.1236L8.6865 26.3546C7.71631 25.9312 6.68864 25.776 5.63124 25.7519ZM5.37164 28.4954C5.63759 28.4977 5.89184 28.6835 6.1105 28.9111C6.19437 29.2586 6.06337 29.6493 5.77102 29.8672C5.64642 30.1274 5.3988 30.0301 5.23186 30.1166C5.02339 29.6385 4.96667 28.9926 5.09208 28.5577C5.18593 28.5145 5.28299 28.4946 5.37164 28.4954ZM5.51143 32.9225C5.87663 32.9075 6.12058 33.2286 6.23031 33.6084C6.18878 33.8694 6.06097 34.0806 5.81096 34.2111C5.47708 34.3849 5.09208 34.1653 5.09208 33.7746C5.13361 33.4703 5.01779 33.117 5.35168 32.9433C5.40909 32.9269 5.45926 32.9246 5.51143 32.9225Z" fill="#231F20"/>
<path d="M43.5724 25.8973C42.4301 25.9027 41.2879 25.9181 40.0778 25.9181C39.66 26.1784 39.8981 26.9141 39.8981 27.4354C40.065 27.8261 40.6529 27.7264 40.7368 28.2044V34.606C40.6529 34.9535 40.3677 35.1181 40.1177 35.2919C39.7008 35.5953 39.7727 36.292 39.8981 36.726C40.065 37.0744 40.359 37.4693 40.7767 37.599C43.1554 37.7727 45.7865 37.7644 48.1652 37.2872C48.9576 36.9397 49.7939 36.3319 50.0024 35.3335C50.3778 33.9002 49.9529 32.5226 48.7843 31.6546C49.619 30.7858 50.2963 29.6128 49.9625 28.2668C49.587 26.9632 48.2986 26.1351 47.047 25.9181C45.8576 25.8965 44.7146 25.8919 43.5724 25.8973ZM45.2098 28.5785C45.468 28.5926 45.7206 28.7251 45.9087 28.9527C45.9087 29.2569 45.9974 29.5654 45.7889 29.8256C45.5805 30.0866 45.2426 30.2014 44.9502 30.1581C44.9087 29.6369 44.7418 29.0333 44.9502 28.5993C45.0337 28.5775 45.1238 28.5738 45.2098 28.5785ZM45.2897 32.9848C45.5821 32.9416 45.8249 33.1611 45.9087 33.4213C46.1172 33.6391 45.9112 33.9126 45.8688 34.0864C45.6603 34.3907 45.3616 34.3358 45.0701 34.3358C44.7777 34.0756 44.7849 33.6025 44.9103 33.255C44.9518 33.0813 45.1643 33.0281 45.2897 32.9848Z" fill="#231F20"/>
</g>
<path d="M2.23658 26.3546C1.71045 26.3709 1.18142 26.4141 0.63906 26.4793C0.472119 27.2176 1.30762 27.3489 1.55763 27.9135C1.89152 29.9545 1.51051 32.3921 1.67745 34.5645C1.63591 35.3892 0.296392 35.4582 0.83875 36.4143C3.34207 36.327 5.52747 36.8233 7.94772 35.9986C8.53161 35.5638 8.98451 34.9494 9.02604 34.2111C9.10912 33.1254 8.72731 31.9938 7.768 31.3429C8.68577 30.5173 9.14027 29.3376 8.80639 28.1213C8.51404 27.2093 7.88941 26.5675 6.9293 26.4378C5.33338 26.4378 3.81498 26.3058 2.23658 26.3546ZM5.37172 28.4954C5.63767 28.4977 5.89191 28.6835 6.11057 28.9111C6.19444 29.2586 6.06344 29.6494 5.7711 29.8672C5.64649 30.1274 5.39887 30.0301 5.23193 30.1166C5.02346 29.6386 4.96674 28.9926 5.09215 28.5578C5.186 28.5145 5.28307 28.4946 5.37172 28.4954ZM5.5115 32.9225C5.8767 32.9075 6.12065 33.2286 6.23038 33.6084C6.18885 33.8694 6.06105 34.0806 5.81103 34.2111C5.47715 34.3849 5.09215 34.1654 5.09215 33.7747C5.13369 33.4704 5.01786 33.117 5.35175 32.9433C5.40916 32.927 5.45933 32.9246 5.5115 32.9225Z" fill="#FEFE00"/>
<path d="M40.7367 26.3962L40.4372 26.5209C40.2287 27.3032 41.1888 27.4712 41.3558 28.0797L41.3957 32.9848C41.4372 33.9833 41.5802 35.2071 40.537 35.7284C40.4116 35.9454 40.406 36.4126 40.6568 36.4558C42.8686 36.3694 45.0804 36.8965 47.1667 36.3311C47.9176 36.0277 48.6173 35.4324 48.7842 34.5645C48.9512 33.3482 48.6708 32.1643 47.5861 31.426C48.4208 30.775 49.0382 29.6485 48.7044 28.4331C48.4535 27.521 47.8633 26.7803 46.987 26.5625L40.7367 26.3962ZM45.2098 28.5785C45.468 28.5927 45.7206 28.7251 45.9087 28.9527C45.9087 29.2569 45.9974 29.5654 45.7889 29.8256C45.5804 30.0867 45.2425 30.2014 44.9502 30.1582C44.9086 29.6369 44.7417 29.0333 44.9502 28.5993C45.0337 28.5775 45.1237 28.5738 45.2098 28.5785ZM45.2897 32.9848C45.582 32.9416 45.8248 33.1611 45.9087 33.4213C46.1172 33.6391 45.9111 33.9127 45.8688 34.0864C45.6603 34.3907 45.3615 34.3358 45.07 34.3358C44.7776 34.0756 44.7848 33.6026 44.9102 33.255C44.9518 33.0813 45.1642 33.0281 45.2897 32.9848Z" fill="#FEFE00"/>
<path d="M15.658 27.4753C16.1173 28.1704 16.5343 29.0391 16.1589 29.9079C15.9089 30.1249 15.6165 30.2987 15.3657 29.9944C14.9903 29.5172 14.8233 28.8222 14.9487 28.2144C15.1572 27.9534 15.1996 27.3024 15.658 27.4753Z" fill="#A6A600"/>
<path d="M4.65278 27.7056C4.43833 27.7186 4.23104 27.7264 4.05371 27.7264C3.88597 28.7249 3.96665 29.7001 4.13359 30.6986C4.92596 30.6986 6.07058 30.8624 6.52987 29.9504C6.77988 29.3859 6.88771 28.7249 6.46996 28.2045C6.03204 27.6502 5.29615 27.6669 4.65278 27.7056ZM5.37167 28.4955C5.63762 28.4978 5.89186 28.6836 6.11052 28.9111C6.19439 29.2587 6.06339 29.6494 5.77105 29.8672C5.64644 30.1274 5.39882 30.0302 5.23188 30.1166C5.02341 29.6386 4.96669 28.9926 5.0921 28.5578C5.18595 28.5146 5.28302 28.4947 5.37167 28.4955Z" fill="#231F20"/>
<path d="M44.8903 27.7264C44.5148 27.7048 44.1447 27.763 43.8319 27.8719C43.7896 28.8272 43.7864 29.8256 43.9118 30.7817C44.7881 30.6944 45.8272 30.8582 46.3281 30.0335C46.495 29.5987 46.7003 29.0333 46.4079 28.5994L45.9487 28.0382C45.6355 27.8428 45.2658 27.748 44.8903 27.7264ZM45.2098 28.5786C45.468 28.5927 45.7206 28.7251 45.9087 28.9527C45.9087 29.257 45.9974 29.5654 45.7889 29.8256C45.5804 30.0867 45.2426 30.2014 44.9502 30.1582C44.9087 29.6369 44.7417 29.0333 44.9502 28.5994C45.0337 28.5775 45.1237 28.5739 45.2098 28.5786Z" fill="#231F20"/>
<path d="M14.6989 30.0385V30.2987C14.448 30.3419 13.9057 30.4724 13.9896 30.0385C14.0311 29.5604 14.6573 29.5604 14.6989 30.0385Z" fill="#A6A600"/>
<path d="M4.65277 32.1535C4.46895 32.1725 4.27096 32.214 4.09364 32.2574C3.92669 33.1694 4.21744 33.8162 4.13357 34.7723C4.6344 34.9461 5.30855 34.8172 5.85091 34.7307C6.3102 34.6435 6.64568 34.335 6.72955 33.8578C6.81262 33.3365 6.64727 32.7712 6.23032 32.4237C5.76065 32.163 5.20421 32.0965 4.65277 32.1535ZM5.51144 32.9225C5.87664 32.9075 6.12059 33.2287 6.23032 33.6084C6.18878 33.8694 6.06098 34.0806 5.81097 34.2111C5.47709 34.3849 5.09209 34.1654 5.09209 33.7747C5.13362 33.4704 5.0178 33.117 5.35168 32.9433C5.40909 32.927 5.45926 32.9246 5.51144 32.9225Z" fill="#231F20"/>
<path d="M44.0317 32.2159L43.832 32.4237L43.8719 34.7723L43.9917 34.897C44.8256 34.8106 45.9511 35.0342 46.368 34.2527C46.535 33.9052 46.5781 33.2493 46.3281 32.9017C45.8688 32.1203 44.8664 32.2159 44.0317 32.2159ZM45.2897 32.9849C45.5821 32.9417 45.8249 33.1611 45.9087 33.4214C46.1172 33.6392 45.9111 33.9127 45.8688 34.0865C45.6603 34.3907 45.3616 34.3359 45.07 34.3359C44.7777 34.0756 44.7849 33.6026 44.9103 33.2551C44.9518 33.0813 45.1643 33.0281 45.2897 32.9849Z" fill="#231F20"/>
<path d="M18.1199 43.4585C18.1199 43.7628 17.7868 43.7628 17.5775 43.8061C17.0767 43.7628 16.5343 44.023 16.1174 43.7187V43.4585H18.1199Z" fill="#A6A600"/>
<path d="M18.1199 44.4138C18.1622 44.6748 18.2037 45.0216 18.0783 45.2826C17.5775 45.4131 17.119 45.369 16.7013 45.1088C16.5343 44.9783 16.4928 44.8486 16.4928 44.6308C16.9098 44.2833 17.5775 44.3706 18.1199 44.4138Z" fill="#A6A600"/>
<path d="M18.1198 46.0209C18.0783 46.2378 18.2868 46.6726 17.9529 46.6286C17.7029 46.6286 17.4944 46.4116 17.4521 46.1514C17.4521 45.9776 17.536 45.7166 17.7444 45.7606C17.9114 45.8039 18.1622 45.7606 18.1198 46.0209Z" fill="#A6A600"/>
<path d="M32.2244 51.0158C32.182 51.1455 32.1405 51.3192 31.9736 51.276C31.8482 51.3192 31.6812 51.1454 31.6812 50.9717L31.8066 50.4945C32.0151 50.5809 32.2659 50.7547 32.2244 51.0158Z" fill="#A6A600"/>
<path d="M32.9337 52.4923C32.9753 52.7093 33.0168 53.1432 32.6829 53.1C31.9736 53.1432 31.3059 52.9263 30.6804 52.666C30.4712 52.4491 30.5135 52.0575 30.5966 51.7973C31.3897 51.6667 32.4745 51.4498 32.9337 52.4923Z" fill="#A6A600"/>
<path d="M24.9637 52.7525C25.2552 53.4043 23.9205 53.7077 24.8798 54.0553C24.8798 53.7518 25.0467 53.578 25.3391 53.6213C25.673 54.0552 24.8798 54.707 25.5476 55.0978C25.0467 55.2715 24.7544 54.8808 24.3374 55.1851C23.9205 55.2283 23.5027 55.141 23.3781 54.7503C22.9188 53.9256 24.3374 53.7518 23.5027 53.0136C23.3358 52.6228 23.7535 52.405 24.0036 52.3185C24.379 52.2753 24.8798 52.3185 24.9637 52.7525Z" fill="#231F20"/>
<path d="M24.4213 52.7525C24.5044 52.9263 24.379 53.1433 24.2959 53.2738C24.0459 53.1873 23.962 52.5355 24.4213 52.7525Z" fill="#FEFE00"/>
<path d="M33.476 53.7951C33.5176 54.0993 33.2252 54.0553 33.0998 54.1858C32.6829 54.2731 31.8482 54.5333 31.6397 54.012C31.5566 53.7518 31.8066 53.578 31.9736 53.5348C32.4744 53.578 33.0167 53.5781 33.476 53.7951Z" fill="#A6A600"/>
<path d="M24.5459 54.6206C24.5043 54.8376 24.212 54.8808 24.0874 54.7503C23.8789 54.6206 23.9204 54.3163 23.962 54.0993L24.0874 54.012L24.5459 54.6206Z" fill="#FEFE00"/>
<path d="M15.7004 55.2283C15.7834 55.4886 15.825 55.7496 15.7419 55.9666C15.5334 56.0971 15.3657 55.9234 15.1572 55.8801C15.2411 55.7064 15.2411 55.4021 15.0326 55.3589C14.8657 55.3148 14.8233 55.4885 14.7403 55.5758C14.7403 56.1836 15.9089 56.6184 15.3242 57.4431C15.1157 57.8339 14.6572 57.8338 14.3225 57.7042C14.0725 57.5736 13.7386 57.4863 13.6971 57.1388L13.7386 56.6184C13.9894 56.5743 14.4903 56.6616 14.3225 57.0956C14.3649 57.2261 14.5733 57.4431 14.7403 57.2261C15.1157 56.4446 13.6555 56.1404 14.2394 55.2283C14.5318 54.6206 15.3657 54.9673 15.7004 55.2283Z" fill="#231F20"/>
<path d="M34.3937 55.4453L33.8514 55.7064L34.4776 57.8779C34.3937 58.0517 34.1429 58.0517 33.9344 58.095C33.726 57.3567 33.5175 56.5744 33.2251 55.8802C33.0582 55.9666 32.8497 55.9666 32.6828 56.0098C32.6828 55.8801 32.4328 55.5759 32.7667 55.5759C33.2251 55.3589 33.7675 55.1851 34.2683 55.141L34.3937 55.4453Z" fill="#231F20"/>
<path d="M18.0368 56.3574C17.5775 56.0971 17.3275 56.4006 17.2859 56.8354L16.9097 58.4425L16.4089 58.3552C16.4512 57.6169 16.7013 56.8786 16.8682 56.0972L16.2843 55.8361L16.4089 55.4886L18.0783 55.9234L18.0368 56.3574Z" fill="#231F20"/>
<path d="M32.1821 56.2709C32.1821 56.3573 32.2244 56.4446 32.2244 56.5743C32.0151 56.5743 31.9321 56.7481 31.6813 56.7049C31.5982 56.5744 31.6397 56.4446 31.4728 56.3573C31.3059 56.3141 31.0974 56.4006 31.1812 56.6184C31.5143 57.1829 32.9753 57.1388 32.516 58.3119C32.266 58.7027 31.8482 58.79 31.3897 58.79C31.1812 58.7027 30.8889 58.5289 30.8889 58.2687C30.7635 57.9644 31.0974 58.0076 31.2643 57.9644C31.5143 57.9211 31.4728 58.5289 31.8482 58.3119C32.349 57.4431 31.0558 57.7042 30.722 57.1829C30.555 56.8786 30.5135 56.5743 30.722 56.2268C31.0558 55.7929 31.9321 55.7064 32.1821 56.2709Z" fill="#231F20"/>
<path d="M19.9978 56.3141C20.2062 56.4006 19.9978 56.5311 20.0393 56.7049C19.7478 56.7922 18.9961 56.3141 19.1631 57.0956C19.1631 57.4864 19.6224 57.2694 19.8308 57.4431V57.7906C19.6224 57.9212 19.3723 57.7474 19.1215 57.7474C18.9961 57.9644 18.9131 58.1814 18.9546 58.4424L19.7478 58.7026L19.6639 59.0934C19.2469 58.9197 18.4122 59.0934 18.3292 58.6162C18.5376 57.7906 18.4953 56.8354 18.83 56.0539L19.9978 56.3141Z" fill="#231F20"/>
<path d="M30.2626 58.9637C30.2211 59.1807 29.8457 59.0934 29.7203 59.0934C29.5949 58.5721 29.2618 58.5289 28.8025 58.7026C28.594 58.9196 28.8025 59.4841 28.2601 59.3977L28.1763 59.3104L28.5102 56.5311C28.7186 56.4446 29.011 56.4006 29.2195 56.4006L30.2626 58.9637Z" fill="#231F20"/>
<path d="M22.668 59.3977C21.6672 59.9622 22.418 58.3119 21.4587 58.7026C21.0825 58.7459 21.1248 59.6579 20.5817 59.2239C20.7909 58.3119 21.1664 57.4431 21.5002 56.5311L22.168 56.5743L22.668 59.3977Z" fill="#231F20"/>
<path d="M27.4255 56.6616C27.467 56.7481 27.467 56.8786 27.467 57.0091L26.7162 57.1388V57.7474L27.467 57.8339V58.1814L26.7577 58.3119V59.4841C26.5492 59.6147 26.4238 59.4841 26.2153 59.4841L26.0484 56.7481C26.5077 56.6184 26.9246 56.6616 27.4255 56.6616Z" fill="#231F20"/>
<path d="M25.2137 57.1829C25.3391 57.9211 25.2975 58.6162 25.089 59.3104C24.7128 59.7884 23.962 59.5282 23.5027 59.5282C23.4196 58.6594 23.5027 57.7041 23.5866 56.7481C24.1289 56.7921 24.9221 56.5311 25.2137 57.1829Z" fill="#231F20"/>
<path d="M24.6299 57.7042C24.546 58.1814 24.8799 59.0934 24.2121 59.0934H24.129C24.046 58.4425 24.0875 57.7042 24.2121 57.1829C24.5045 57.1829 24.6299 57.4431 24.6299 57.7042Z" fill="#FEFE00"/>
<path d="M29.0948 58.1382H28.844L28.9271 57.1829C29.0109 57.4431 29.3448 57.9212 29.0948 58.1382Z" fill="#FEFE00"/>
<path d="M35.3936 62.3283C35.4342 62.5165 35.0013 63.1506 34.6754 63.113C33.9831 63.1505 33.4984 63.1683 33.1942 62.479C32.8785 61.9817 33.3654 61.8738 33.4464 61.6481C34.2207 61.5349 34.8902 61.5004 35.3936 62.3283Z" fill="#A6A600"/>
<path d="M36.0173 60.7008C36.1023 60.8655 35.9674 61.3595 35.6158 61.4104C35.0212 61.4467 34.4964 61.3767 33.9602 60.9464C33.6532 60.2781 34.0954 60.155 34.2606 60.0612C35.051 60.0912 35.7996 60.0323 36.0206 60.7057" fill="#A6A600"/>
<path d="M35.9149 59.9766C35.8327 60.0227 35.5461 59.8353 35.5206 59.6448C35.5025 59.3226 35.5774 59.1013 35.7923 58.8107C36.126 58.6444 36.1792 58.9007 36.2261 58.9903C36.2809 59.4497 36.3004 59.8932 35.9025 59.968" fill="#A6A600"/>
<path d="M21.6887 58.1863L21.9395 58.1862L21.8564 57.231C21.7726 57.4912 21.4387 57.9693 21.6887 58.1863Z" fill="#FEFE00"/>
</svg>
